<?xml version="1.0" encoding="UTF-8" standalone="no"?>
<!-- Created with Inkscape (http://www.inkscape.org/) -->

<svg
   xmlns:dc="http://purl.org/dc/elements/1.1/"
   xmlns:cc="http://creativecommons.org/ns#"
   xmlns:rdf="http://www.w3.org/1999/02/22-rdf-syntax-ns#"
   xmlns:svg="http://www.w3.org/2000/svg"
   xmlns="http://www.w3.org/2000/svg"
   xmlns:sodipodi="http://sodipodi.sourceforge.net/DTD/sodipodi-0.dtd"
   xmlns:inkscape="http://www.inkscape.org/namespaces/inkscape"
   width="96.979057mm"
   height="99.870979mm"
   viewBox="0 0 96.979057 99.870979"
   version="1.1"
   id="svg8"
   inkscape:version="0.92.3 (2405546, 2018-03-11)"
   sodipodi:docname="favicon-mrwp.svg"
   inkscape:export-filename="D:\dev en cours bureau\dev_mondial_relay\themes\themedd-child\images\favicon-mrwp.png"
   inkscape:export-xdpi="96"
   inkscape:export-ydpi="96">
  <defs
     id="defs2" />
  <sodipodi:namedview
     id="base"
     pagecolor="#ffffff"
     bordercolor="#666666"
     borderopacity="1.0"
     inkscape:pageopacity="0.0"
     inkscape:pageshadow="2"
     inkscape:zoom="0.7"
     inkscape:cx="306.88414"
     inkscape:cy="234.9791"
     inkscape:document-units="mm"
     inkscape:current-layer="layer1"
     showgrid="false"
     fit-margin-top="0"
     fit-margin-left="0"
     fit-margin-right="0"
     fit-margin-bottom="0"
     inkscape:window-width="1366"
     inkscape:window-height="705"
     inkscape:window-x="246"
     inkscape:window-y="1072"
     inkscape:window-maximized="1" />
  <metadata
     id="metadata5">
    <rdf:RDF>
      <cc:Work
         rdf:about="">
        <dc:format>image/svg+xml</dc:format>
        <dc:type
           rdf:resource="http://purl.org/dc/dcmitype/StillImage" />
        <dc:title></dc:title>
      </cc:Work>
    </rdf:RDF>
  </metadata>
  <g
     inkscape:label="Calque 1"
     inkscape:groupmode="layer"
     id="layer1"
     transform="translate(-10.408879,-196.60739)">
    <path
       style="fill:#ca0047;fill-rule:evenodd;stroke:none;stroke-width:0.26458332"
       d="m 45.3002,196.63425 c -8.175513,0.14863 -16.294885,1.36313 -24.31759,2.84506 -6.671167,1.48348 -11.2068422,8.50093 -10.501575,15.18534 -0.09302,22.24122 0.0022,44.48293 -2.5e-5,66.72437 1.423778,5.81296 6.126118,10.98789 12.31873,11.53742 8.636381,1.44402 17.355579,2.37348 26.07601,3.1205 11.585403,1.13572 23.190514,-0.18906 34.703471,-1.4558 5.415036,-0.92785 11.118357,-0.96722 16.233841,-3.12941 5.153128,-2.73702 8.178408,-8.68575 7.473598,-14.4629 5.3e-4,-21.93129 0.23187,-43.86719 -0.0652,-65.79588 -0.80139,-6.4538 -6.51301,-11.8607 -13.040755,-12.25032 -8.628263,-1.37236 -17.316285,-2.59094 -26.082812,-2.28586 -7.599071,-0.0336 -15.198738,-0.0949 -22.797723,-0.0325"
       id="path1"
       inkscape:connector-curvature="0" />
    <g
       id="g3816"
       transform="matrix(0.56073029,0,0,0.56073029,24.546107,212.1917)">
      <g
         id="Layer_1" />
      <g
         id="Layer_2">
        <g
           id="g3789">
          <g
             id="g3787">
            <path
               id="path3777"
               d="m 8.708,61.26 c 0,20.802 12.089,38.779 29.619,47.298 L 13.258,39.872 c -2.916,6.536 -4.55,13.769 -4.55,21.388 z"
               inkscape:connector-curvature="0"
               style="fill:#ffffff" />
            <path
               id="path3779"
               d="m 96.74,58.608 c 0,-6.495 -2.333,-10.993 -4.334,-14.494 -2.664,-4.329 -5.161,-7.995 -5.161,-12.324 0,-4.831 3.664,-9.328 8.825,-9.328 0.233,0 0.454,0.029 0.681,0.042 C 87.401,13.938 74.944,8.708 61.262,8.708 c -18.36,0 -34.513,9.42 -43.91,23.688 1.233,0.037 2.395,0.063 3.382,0.063 5.497,0 14.006,-0.667 14.006,-0.667 2.833,-0.167 3.167,3.994 0.337,4.329 0,0 -2.847,0.335 -6.015,0.501 L 48.2,93.547 59.701,59.054 51.513,36.62 c -2.83,-0.166 -5.511,-0.501 -5.511,-0.501 -2.832,-0.166 -2.5,-4.496 0.332,-4.329 0,0 8.679,0.667 13.843,0.667 5.496,0 14.006,-0.667 14.006,-0.667 2.835,-0.167 3.168,3.994 0.337,4.329 0,0 -2.853,0.335 -6.015,0.501 l 18.992,56.494 5.242,-17.517 c 2.272,-7.269 4.001,-12.49 4.001,-16.989 z"
               inkscape:connector-curvature="0"
               style="fill:#ffffff" />
            <path
               id="path3781"
               d="m 62.184,65.857 -15.768,45.819 c 4.708,1.384 9.687,2.141 14.846,2.141 6.12,0 11.989,-1.058 17.452,-2.979 -0.141,-0.225 -0.269,-0.464 -0.374,-0.724 z"
               inkscape:connector-curvature="0"
               style="fill:#ffffff" />
            <path
               id="path3783"
               d="m 107.376,36.046 c 0.226,1.674 0.354,3.471 0.354,5.404 0,5.333 -0.996,11.328 -3.996,18.824 l -16.053,46.413 c 15.624,-9.111 26.133,-26.038 26.133,-45.426 0.001,-9.137 -2.333,-17.729 -6.438,-25.215 z"
               inkscape:connector-curvature="0"
               style="fill:#ffffff" />
            <path
               id="path3785"
               d="M 61.262,0 C 27.483,0 0,27.481 0,61.26 c 0,33.783 27.483,61.263 61.262,61.263 33.778,0 61.265,-27.48 61.265,-61.263 C 122.526,27.481 95.04,0 61.262,0 Z m 0,119.715 c -32.23,0 -58.453,-26.223 -58.453,-58.455 0,-32.23 26.222,-58.451 58.453,-58.451 32.229,0 58.45,26.221 58.45,58.451 0,32.232 -26.221,58.455 -58.45,58.455 z"
               inkscape:connector-curvature="0"
               style="fill:#ffffff" />
          </g>
        </g>
      </g>
    </g>
  </g>
</svg>
